<?xml version="1.0" standalone="no"?>
<!DOCTYPE svg PUBLIC "-//W3C//DTD SVG 20010904//EN"
 "http://www.w3.org/TR/2001/REC-SVG-20010904/DTD/svg10.dtd">
<svg version="1.0" xmlns="http://www.w3.org/2000/svg"
 width="512.000000pt" height="512.000000pt" viewBox="0 0 512.000000 512.000000"
 preserveAspectRatio="xMidYMid meet">
<metadata>
Created by potrace 1.14, written by Peter Selinger 2001-2017
</metadata>
<g transform="translate(0.000000,512.000000) scale(0.100000,-0.100000)"
fill="#000000" stroke="none">
<path d="M770 4695 l0 -425 1753 0 1753 0 -1 -1715 0 -1715 35 -1 c19 0 193 0
385 0 l350 -1 3 2141 2 2141 -2140 0 -2140 0 0 -425z"/>
<path d="M70 4242 c-7 -3 -10 -719 -10 -2123 l0 -2119 2120 0 c2012 0 2120 1
2121 18 0 9 1 191 2 405 l2 387 -30 0 c-16 1 -799 1 -1740 1 -940 0 -1717 2
-1725 4 -13 4 -15 202 -15 1711 0 1070 -4 1708 -9 1712 -10 6 -698 10 -716 4z"/>
<path d="M1748 3454 l-3 -326 -70 -24 c-294 -99 -528 -339 -624 -638 -80 -248
-60 -518 55 -751 104 -209 296 -388 514 -478 237 -98 529 -99 760 -1 164 70
318 187 415 319 17 22 32 42 35 45 3 3 15 23 27 45 l22 40 479 3 480 2 0 1044
-1 1045 -1043 0 -1044 1 -2 -326z"/>
</g>
</svg>
